<svg width="18" height="18" viewBox="0 0 18 18" fill="none" xmlns="http://www.w3.org/2000/svg">
<path fill-rule="evenodd" clip-rule="evenodd" d="M9.09 14.6942L9 14.7842L8.901 14.6942C4.626 10.8152 1.8 8.25022 1.8 5.64922C1.8 3.84922 3.15 2.49922 4.95 2.49922C6.336 2.49922 7.686 3.39922 8.163 4.62322H9.837C10.314 3.39922 11.664 2.49922 13.05 2.49922C14.85 2.49922 16.2 3.84922 16.2 5.64922C16.2 8.25022 13.374 10.8152 9.09 14.6942ZM13.05 0.699219C11.484 0.699219 9.981 1.42822 9 2.57122C8.019 1.42822 6.516 0.699219 4.95 0.699219C2.178 0.699219 0 2.86822 0 5.64922C0 9.04222 3.06 11.8232 7.695 16.0262L9 17.2142L10.305 16.0262C14.94 11.8232 18 9.04222 18 5.64922C18 2.86822 15.822 0.699219 13.05 0.699219Z" fill="white"/>
<mask id="mask0_0_311" style="mask-type:alpha" maskUnits="userSpaceOnUse" x="0" y="0" width="18" height="18">
<path fill-rule="evenodd" clip-rule="evenodd" d="M9.09 14.6942L9 14.7842L8.901 14.6942C4.626 10.8152 1.8 8.25022 1.8 5.64922C1.8 3.84922 3.15 2.49922 4.95 2.49922C6.336 2.49922 7.686 3.39922 8.163 4.62322H9.837C10.314 3.39922 11.664 2.49922 13.05 2.49922C14.85 2.49922 16.2 3.84922 16.2 5.64922C16.2 8.25022 13.374 10.8152 9.09 14.6942ZM13.05 0.699219C11.484 0.699219 9.981 1.42822 9 2.57122C8.019 1.42822 6.516 0.699219 4.95 0.699219C2.178 0.699219 0 2.86822 0 5.64922C0 9.04222 3.06 11.8232 7.695 16.0262L9 17.2142L10.305 16.0262C14.94 11.8232 18 9.04222 18 5.64922C18 2.86822 15.822 0.699219 13.05 0.699219Z" fill="white"/>
</mask>
<g mask="url(#mask0_0_311)">
</g>
</svg>
