<svg width="26" height="11" viewBox="0 0 26 11" fill="none" xmlns="http://www.w3.org/2000/svg">
<path fill-rule="evenodd" clip-rule="evenodd" d="M13 2.33333C11.2667 2.33333 9.5875 2.625 8.01667 3.17333V6.79C8.01667 7.25667 7.7675 7.65333 7.41 7.84C6.34833 8.41167 5.38417 9.14667 4.5175 9.99833C4.33333 10.2083 4.0625 10.3367 3.79167 10.3367C3.46667 10.3367 3.19583 10.1967 3.00083 9.98667L0.314167 7.09333C0.119167 6.88333 0 6.59167 0 6.27667C0 5.95 0.119167 5.65833 0.314167 5.44833C3.61833 2.065 8.08167 0 13 0C17.9183 0 22.3817 2.065 25.6858 5.44833C25.8808 5.65833 26 5.95 26 6.27667C26 6.59167 25.8808 6.88333 25.6858 7.09333L22.9992 9.98667C22.8042 10.1967 22.5333 10.3367 22.2083 10.3367C21.9375 10.3367 21.6667 10.2083 21.4717 9.99833C20.6158 9.14667 19.6517 8.41167 18.59 7.84C18.2325 7.65333 17.9833 7.25667 17.9833 6.79V3.17333C16.4125 2.625 14.7333 2.33333 13 2.33333Z" fill="white"/>
</svg>
