<svg width="22" height="22" viewBox="0 0 22 22" fill="none" xmlns="http://www.w3.org/2000/svg">
<path fill-rule="evenodd" clip-rule="evenodd" d="M11 19.8C15.8601 19.8 19.8 15.8601 19.8 11C19.8 6.13989 15.8601 2.2 11 2.2C6.1399 2.2 2.20001 6.13989 2.20001 11C2.20001 15.8601 6.1399 19.8 11 19.8ZM11 0C13.9174 0 16.7153 1.15893 18.7782 3.22183C20.8411 5.28473 22 8.08262 22 11C22 17.0751 17.0751 22 11 22C4.917 22 0 17.05 0 11C0 4.92487 4.92487 0 11 0ZM11.55 5.5V11.275L16.5 14.212L15.675 15.565L9.90002 12.1V5.5H11.55Z" fill="#8F92A1"/>
<mask id="mask0_399_263" style="mask-type:alpha" maskUnits="userSpaceOnUse" x="0" y="0" width="22" height="22">
<path fill-rule="evenodd" clip-rule="evenodd" d="M11 19.8C15.8601 19.8 19.8 15.8601 19.8 11C19.8 6.13989 15.8601 2.2 11 2.2C6.1399 2.2 2.20001 6.13989 2.20001 11C2.20001 15.8601 6.1399 19.8 11 19.8ZM11 0C13.9174 0 16.7153 1.15893 18.7782 3.22183C20.8411 5.28473 22 8.08262 22 11C22 17.0751 17.0751 22 11 22C4.917 22 0 17.05 0 11C0 4.92487 4.92487 0 11 0ZM11.55 5.5V11.275L16.5 14.212L15.675 15.565L9.90002 12.1V5.5H11.55Z" fill="white"/>
</mask>
<g mask="url(#mask0_399_263)">
</g>
</svg>
