<svg width="18" height="12" viewBox="0 0 18 12" fill="none" xmlns="http://www.w3.org/2000/svg">
<path fill-rule="evenodd" clip-rule="evenodd" d="M18 4.90909H16.3636V3.27273H14.7273V4.90909H13.0909V6.54545H14.7273V8.18182H16.3636V6.54545H18M5.72727 4.90909V6.87273H9C8.83636 7.69091 8.01818 9.32727 5.72727 9.32727C3.76364 9.32727 2.20909 7.69091 2.20909 5.72727C2.20909 3.76364 3.76364 2.12727 5.72727 2.12727C6.87273 2.12727 7.60909 2.61818 8.01818 3.02727L9.57273 1.55455C8.59091 0.572727 7.28182 0 5.72727 0C2.53636 0 0 2.53636 0 5.72727C0 8.91818 2.53636 11.4545 5.72727 11.4545C9 11.4545 11.2091 9.16364 11.2091 5.89091C11.2091 5.48182 11.2091 5.23636 11.1273 4.90909H5.72727Z" fill="#1E1F20"/>
</svg>
