<svg width="14" height="14" viewBox="0 0 14 14" fill="none" xmlns="http://www.w3.org/2000/svg">
<path fill-rule="evenodd" clip-rule="evenodd" d="M7.06999 11.428L6.99999 11.498L6.92299 11.428C3.59799 8.41097 1.39999 6.41597 1.39999 4.39297C1.39999 2.99297 2.44999 1.94297 3.84999 1.94297C4.92799 1.94297 5.97799 2.64297 6.34899 3.59497H7.65099C8.02199 2.64297 9.07199 1.94297 10.15 1.94297C11.55 1.94297 12.6 2.99297 12.6 4.39297C12.6 6.41597 10.402 8.41097 7.06999 11.428ZM10.15 0.542969C8.932 0.542969 7.763 1.10997 7 1.99897C6.237 1.10997 5.068 0.542969 3.85 0.542969C1.694 0.542969 0 2.22997 0 4.39297C0 7.03197 2.38 9.19497 5.985 12.464L7 13.388L8.015 12.464C11.62 9.19497 14 7.03197 14 4.39297C14 2.22997 12.306 0.542969 10.15 0.542969Z" fill="#8F92A1"/>
<mask id="mask0_0_1363" style="mask-type:alpha" maskUnits="userSpaceOnUse" x="0" y="0" width="14" height="14">
<path fill-rule="evenodd" clip-rule="evenodd" d="M7.06999 11.428L6.99999 11.498L6.92299 11.428C3.59799 8.41097 1.39999 6.41597 1.39999 4.39297C1.39999 2.99297 2.44999 1.94297 3.84999 1.94297C4.92799 1.94297 5.97799 2.64297 6.34899 3.59497H7.65099C8.02199 2.64297 9.07199 1.94297 10.15 1.94297C11.55 1.94297 12.6 2.99297 12.6 4.39297C12.6 6.41597 10.402 8.41097 7.06999 11.428ZM10.15 0.542969C8.932 0.542969 7.763 1.10997 7 1.99897C6.237 1.10997 5.068 0.542969 3.85 0.542969C1.694 0.542969 0 2.22997 0 4.39297C0 7.03197 2.38 9.19497 5.985 12.464L7 13.388L8.015 12.464C11.62 9.19497 14 7.03197 14 4.39297C14 2.22997 12.306 0.542969 10.15 0.542969Z" fill="white"/>
</mask>
<g mask="url(#mask0_0_1363)">
</g>
</svg>
