<svg width="14" height="18" viewBox="0 0 14 18" fill="none" xmlns="http://www.w3.org/2000/svg">
<path fill-rule="evenodd" clip-rule="evenodd" d="M12.8097 15.1001C12.0935 16.17 11.3342 17.2141 10.178 17.2313C9.02172 17.2572 8.65069 16.5497 7.33914 16.5497C6.01896 16.5497 5.61342 17.2141 4.51759 17.2572C3.38724 17.3004 2.53301 16.1182 1.8082 15.0742C0.33271 12.9429 -0.797637 9.01689 0.720998 6.37654C1.47169 5.06499 2.81775 4.23665 4.27598 4.21076C5.38045 4.1935 6.43314 4.96145 7.1148 4.96145C7.78783 4.96145 9.06486 4.03819 10.4023 4.17625C10.9632 4.20213 12.5336 4.40059 13.5431 5.88471C13.4655 5.93648 11.6707 6.98917 11.688 9.17221C11.7138 11.778 13.9745 12.6495 14.0004 12.6582C13.9745 12.7186 13.638 13.9007 12.8097 15.1001ZM7.88274 1.29429C8.51263 0.578117 9.55669 0.0345144 10.4196 0C10.5317 1.00955 10.1262 2.02772 9.52218 2.75253C8.9268 3.48596 7.94314 4.05545 6.97674 3.97779C6.84731 2.9855 7.33051 1.95007 7.88274 1.29429Z" fill="white"/>
</svg>
