<svg width="14" height="14" viewBox="0 0 14 14" fill="none" xmlns="http://www.w3.org/2000/svg">
<path fill-rule="evenodd" clip-rule="evenodd" d="M12.6 0H1.4C0.626801 0 0 0.626801 0 1.4V14L2.8 11.2H12.6C13.3732 11.2 14 10.5732 14 9.8V1.4C14 0.626801 13.3732 0 12.6 0ZM12.6 9.8H2.80004L1.40004 11.2V1.4H12.6" fill="#1E1F20"/>
<mask id="mask0_274_2948" style="mask-type:alpha" maskUnits="userSpaceOnUse" x="0" y="0" width="14" height="14">
<path fill-rule="evenodd" clip-rule="evenodd" d="M12.6 0H1.4C0.626801 0 0 0.626801 0 1.4V14L2.8 11.2H12.6C13.3732 11.2 14 10.5732 14 9.8V1.4C14 0.626801 13.3732 0 12.6 0ZM12.6 9.8H2.80004L1.40004 11.2V1.4H12.6" fill="white"/>
</mask>
<g mask="url(#mask0_274_2948)">
</g>
</svg>
