<svg width="14" height="14" viewBox="0 0 14 14" fill="none" xmlns="http://www.w3.org/2000/svg">
<path fill-rule="evenodd" clip-rule="evenodd" d="M1.4 2.17734H3.5L4.9 0.777344H9.1L10.5 2.17734H12.6C13.3732 2.17734 14 2.80415 14 3.57734V11.9773C14 12.7505 13.3732 13.3773 12.6 13.3773H1.4C0.626801 13.3773 0 12.7505 0 11.9773V3.57734C0 2.80415 0.626801 2.17734 1.4 2.17734ZM7 4.27734C5.067 4.27734 3.5 5.84435 3.5 7.77734C3.5 9.71034 5.067 11.2773 7 11.2773C8.933 11.2773 10.5 9.71034 10.5 7.77734C10.5 5.84435 8.933 4.27734 7 4.27734ZM6.99999 5.67734C8.15979 5.67734 9.09999 6.61755 9.09999 7.77734C9.09999 8.93714 8.15979 9.87734 6.99999 9.87734C5.84019 9.87734 4.89999 8.93714 4.89999 7.77734C4.89999 6.61755 5.84019 5.67734 6.99999 5.67734Z" fill="white"/>
<mask id="mask0_0_384" style="mask-type:alpha" maskUnits="userSpaceOnUse" x="0" y="0" width="14" height="14">
<path fill-rule="evenodd" clip-rule="evenodd" d="M1.4 2.17734H3.5L4.9 0.777344H9.1L10.5 2.17734H12.6C13.3732 2.17734 14 2.80415 14 3.57734V11.9773C14 12.7505 13.3732 13.3773 12.6 13.3773H1.4C0.626801 13.3773 0 12.7505 0 11.9773V3.57734C0 2.80415 0.626801 2.17734 1.4 2.17734ZM7 4.27734C5.067 4.27734 3.5 5.84435 3.5 7.77734C3.5 9.71034 5.067 11.2773 7 11.2773C8.933 11.2773 10.5 9.71034 10.5 7.77734C10.5 5.84435 8.933 4.27734 7 4.27734ZM6.99999 5.67734C8.15979 5.67734 9.09999 6.61755 9.09999 7.77734C9.09999 8.93714 8.15979 9.87734 6.99999 9.87734C5.84019 9.87734 4.89999 8.93714 4.89999 7.77734C4.89999 6.61755 5.84019 5.67734 6.99999 5.67734Z" fill="white"/>
</mask>
<g mask="url(#mask0_0_384)">
</g>
</svg>
