<svg width="18" height="18" viewBox="0 0 18 18" fill="none" xmlns="http://www.w3.org/2000/svg">
<path fill-rule="evenodd" clip-rule="evenodd" d="M6.30005 15.301V9.90103H8.10005H9.90005H11.7001V15.301H14.4001V8.02003L9.00006 2.62003L3.60005 8.02003V15.301H6.30005ZM9.00005 0.0820312L17.9191 9.00103H16.2001V17.101H9.90005V11.701H8.10005V17.101H1.80005V9.00103H0.0810547L9.00005 0.0820312Z" fill="#666AEC"/>
<mask id="mask0_0_888" style="mask-type:alpha" maskUnits="userSpaceOnUse" x="0" y="0" width="18" height="18">
<path fill-rule="evenodd" clip-rule="evenodd" d="M6.30005 15.301V9.90103H8.10005H9.90005H11.7001V15.301H14.4001V8.02003L9.00006 2.62003L3.60005 8.02003V15.301H6.30005ZM9.00005 0.0820312L17.9191 9.00103H16.2001V17.101H9.90005V11.701H8.10005V17.101H1.80005V9.00103H0.0810547L9.00005 0.0820312Z" fill="white"/>
</mask>
<g mask="url(#mask0_0_888)">
</g>
</svg>
