<svg width="14" height="14" viewBox="0 0 14 14" fill="none" xmlns="http://www.w3.org/2000/svg">
<path fill-rule="evenodd" clip-rule="evenodd" d="M6.99999 4.2C8.54638 4.2 9.79998 5.4536 9.79998 7C9.79998 8.5464 8.54638 9.8 6.99999 9.8C5.45359 9.8 4.19999 8.5464 4.19999 7C4.19999 5.4536 5.45359 4.2 6.99999 4.2ZM6.99999 5.6C6.22679 5.6 5.59999 6.2268 5.59999 7C5.59999 7.7732 6.22679 8.4 6.99999 8.4C7.77318 8.4 8.39999 7.7732 8.39999 7C8.39999 6.2268 7.77318 5.6 6.99999 5.6ZM5.59999 14C5.42499 14 5.27799 13.874 5.24999 13.706L4.99099 11.851C4.54999 11.676 4.17199 11.438 3.80799 11.158L2.06499 11.865C1.91099 11.921 1.72199 11.865 1.63799 11.711L0.237985 9.289C0.146985 9.135 0.188985 8.946 0.321985 8.841L1.79899 7.679L1.74999 7L1.79899 6.3L0.321985 5.159C0.188985 5.054 0.146985 4.865 0.237985 4.711L1.63799 2.289C1.72199 2.135 1.91099 2.072 2.06499 2.135L3.80799 2.835C4.17199 2.562 4.54999 2.324 4.99099 2.149L5.24999 0.294C5.27799 0.126 5.42499 0 5.59999 0H8.39999C8.57499 0 8.72198 0.126 8.74998 0.294L9.00899 2.149C9.44999 2.324 9.82799 2.562 10.192 2.835L11.935 2.135C12.089 2.072 12.278 2.135 12.362 2.289L13.762 4.711C13.853 4.865 13.811 5.054 13.678 5.159L12.201 6.3L12.25 7L12.201 7.7L13.678 8.841C13.811 8.946 13.853 9.135 13.762 9.289L12.362 11.711C12.278 11.865 12.089 11.928 11.935 11.865L10.192 11.165C9.82799 11.438 9.44999 11.676 9.00899 11.851L8.74998 13.706C8.72198 13.874 8.57499 14 8.39999 14H5.59999ZM6.47499 1.4L6.21598 3.227C5.37598 3.402 4.63399 3.85 4.09499 4.473L2.40799 3.745L1.88299 4.655L3.35999 5.74C3.07999 6.559 3.07999 7.448 3.35999 8.26L1.87599 9.352L2.40099 10.262L4.10198 9.534C4.64099 10.15 5.37599 10.598 6.20898 10.766L6.46798 12.6H7.53198L7.79098 10.773C8.62398 10.598 9.35898 10.15 9.89798 9.534L11.599 10.262L12.124 9.352L10.64 8.267C10.92 7.448 10.92 6.559 10.64 5.74L12.117 4.655L11.592 3.745L9.90498 4.473C9.36598 3.85 8.62399 3.402 7.78399 3.234L7.52498 1.4H6.47499Z" fill="white"/>
<mask id="mask0_0_1397" style="mask-type:alpha" maskUnits="userSpaceOnUse" x="0" y="0" width="14" height="14">
<path fill-rule="evenodd" clip-rule="evenodd" d="M6.99999 4.2C8.54638 4.2 9.79998 5.4536 9.79998 7C9.79998 8.5464 8.54638 9.8 6.99999 9.8C5.45359 9.8 4.19999 8.5464 4.19999 7C4.19999 5.4536 5.45359 4.2 6.99999 4.2ZM6.99999 5.6C6.22679 5.6 5.59999 6.2268 5.59999 7C5.59999 7.7732 6.22679 8.4 6.99999 8.4C7.77318 8.4 8.39999 7.7732 8.39999 7C8.39999 6.2268 7.77318 5.6 6.99999 5.6ZM5.59999 14C5.42499 14 5.27799 13.874 5.24999 13.706L4.99099 11.851C4.54999 11.676 4.17199 11.438 3.80799 11.158L2.06499 11.865C1.91099 11.921 1.72199 11.865 1.63799 11.711L0.237985 9.289C0.146985 9.135 0.188985 8.946 0.321985 8.841L1.79899 7.679L1.74999 7L1.79899 6.3L0.321985 5.159C0.188985 5.054 0.146985 4.865 0.237985 4.711L1.63799 2.289C1.72199 2.135 1.91099 2.072 2.06499 2.135L3.80799 2.835C4.17199 2.562 4.54999 2.324 4.99099 2.149L5.24999 0.294C5.27799 0.126 5.42499 0 5.59999 0H8.39999C8.57499 0 8.72198 0.126 8.74998 0.294L9.00899 2.149C9.44999 2.324 9.82799 2.562 10.192 2.835L11.935 2.135C12.089 2.072 12.278 2.135 12.362 2.289L13.762 4.711C13.853 4.865 13.811 5.054 13.678 5.159L12.201 6.3L12.25 7L12.201 7.7L13.678 8.841C13.811 8.946 13.853 9.135 13.762 9.289L12.362 11.711C12.278 11.865 12.089 11.928 11.935 11.865L10.192 11.165C9.82799 11.438 9.44999 11.676 9.00899 11.851L8.74998 13.706C8.72198 13.874 8.57499 14 8.39999 14H5.59999ZM6.47499 1.4L6.21598 3.227C5.37598 3.402 4.63399 3.85 4.09499 4.473L2.40799 3.745L1.88299 4.655L3.35999 5.74C3.07999 6.559 3.07999 7.448 3.35999 8.26L1.87599 9.352L2.40099 10.262L4.10198 9.534C4.64099 10.15 5.37599 10.598 6.20898 10.766L6.46798 12.6H7.53198L7.79098 10.773C8.62398 10.598 9.35898 10.15 9.89798 9.534L11.599 10.262L12.124 9.352L10.64 8.267C10.92 7.448 10.92 6.559 10.64 5.74L12.117 4.655L11.592 3.745L9.90498 4.473C9.36598 3.85 8.62399 3.402 7.78399 3.234L7.52498 1.4H6.47499Z" fill="white"/>
</mask>
<g mask="url(#mask0_0_1397)">
</g>
</svg>
