<svg width="25" height="25" viewBox="0 0 25 25" fill="none" xmlns="http://www.w3.org/2000/svg">
<path fill-rule="evenodd" clip-rule="evenodd" d="M12.4999 18.0553C14.0341 18.0553 15.2777 19.299 15.2777 20.8331C15.2777 22.3672 14.0341 23.6109 12.4999 23.6109C10.9658 23.6109 9.72217 22.3672 9.72217 20.8331C9.72217 19.299 10.9658 18.0553 12.4999 18.0553ZM12.4999 9.722C14.0341 9.722 15.2777 10.9657 15.2777 12.4998C15.2777 14.0339 14.0341 15.2776 12.4999 15.2776C10.9658 15.2776 9.72217 14.0339 9.72217 12.4998C9.72217 10.9657 10.9658 9.722 12.4999 9.722ZM12.4999 1.38867C14.0341 1.38867 15.2777 2.63233 15.2777 4.16645C15.2777 5.70057 14.0341 6.94423 12.4999 6.94423C10.9658 6.94423 9.72217 5.70057 9.72217 4.16645C9.72217 2.63233 10.9658 1.38867 12.4999 1.38867Z" fill="white"/>
<mask id="mask0_385_2182" style="mask-type:alpha" maskUnits="userSpaceOnUse" x="9" y="1" width="7" height="23">
<path fill-rule="evenodd" clip-rule="evenodd" d="M12.4999 18.0553C14.0341 18.0553 15.2777 19.299 15.2777 20.8331C15.2777 22.3672 14.0341 23.6109 12.4999 23.6109C10.9658 23.6109 9.72217 22.3672 9.72217 20.8331C9.72217 19.299 10.9658 18.0553 12.4999 18.0553ZM12.4999 9.722C14.0341 9.722 15.2777 10.9657 15.2777 12.4998C15.2777 14.0339 14.0341 15.2776 12.4999 15.2776C10.9658 15.2776 9.72217 14.0339 9.72217 12.4998C9.72217 10.9657 10.9658 9.722 12.4999 9.722ZM12.4999 1.38867C14.0341 1.38867 15.2777 2.63233 15.2777 4.16645C15.2777 5.70057 14.0341 6.94423 12.4999 6.94423C10.9658 6.94423 9.72217 5.70057 9.72217 4.16645C9.72217 2.63233 10.9658 1.38867 12.4999 1.38867Z" fill="white"/>
</mask>
<g mask="url(#mask0_385_2182)">
</g>
</svg>
