<svg width="14" height="14" viewBox="0 0 14 14" fill="none" xmlns="http://www.w3.org/2000/svg">
<path fill-rule="evenodd" clip-rule="evenodd" d="M7.07 11.428L7 11.498L6.923 11.428C3.598 8.41097 1.4 6.41597 1.4 4.39297C1.4 2.99297 2.45 1.94297 3.85 1.94297C4.928 1.94297 5.978 2.64297 6.349 3.59497H7.651C8.022 2.64297 9.072 1.94297 10.15 1.94297C11.55 1.94297 12.6 2.99297 12.6 4.39297C12.6 6.41597 10.402 8.41097 7.07 11.428ZM10.15 0.542969C8.932 0.542969 7.763 1.10997 7 1.99897C6.237 1.10997 5.068 0.542969 3.85 0.542969C1.694 0.542969 0 2.22997 0 4.39297C0 7.03197 2.38 9.19497 5.985 12.464L7 13.388L8.015 12.464C11.62 9.19497 14 7.03197 14 4.39297C14 2.22997 12.306 0.542969 10.15 0.542969Z" fill="#8F92A1"/>
<mask id="mask0_0_1039" style="mask-type:alpha" maskUnits="userSpaceOnUse" x="0" y="0" width="14" height="14">
<path fill-rule="evenodd" clip-rule="evenodd" d="M7.07 11.428L7 11.498L6.923 11.428C3.598 8.41097 1.4 6.41597 1.4 4.39297C1.4 2.99297 2.45 1.94297 3.85 1.94297C4.928 1.94297 5.978 2.64297 6.349 3.59497H7.651C8.022 2.64297 9.072 1.94297 10.15 1.94297C11.55 1.94297 12.6 2.99297 12.6 4.39297C12.6 6.41597 10.402 8.41097 7.07 11.428ZM10.15 0.542969C8.932 0.542969 7.763 1.10997 7 1.99897C6.237 1.10997 5.068 0.542969 3.85 0.542969C1.694 0.542969 0 2.22997 0 4.39297C0 7.03197 2.38 9.19497 5.985 12.464L7 13.388L8.015 12.464C11.62 9.19497 14 7.03197 14 4.39297C14 2.22997 12.306 0.542969 10.15 0.542969Z" fill="white"/>
</mask>
<g mask="url(#mask0_0_1039)">
</g>
</svg>
